<svg xmlns="http://www.w3.org/2000/svg" width="148" height="36" viewBox="0 0 148 36" role="img" aria-label="LuteOS">
  <rect width="148" height="36" rx="8" fill="#ffffff"/>
  <path d="M17 9h6v13h8v5H17z" fill="#2563eb"/>
  <path d="M37 9h5v10.2c0 2.4 1.4 3.5 3.4 3.5s3.4-1.1 3.4-3.5V9h5v10.4c0 5.4-3.6 8-8.5 8s-8.3-2.6-8.3-8z" fill="#2563eb"/>
  <path d="M60 14h-5V9h15v5h-5v13h-5z" fill="#2563eb"/>
  <path d="M73 9h15v4.5H78v2.5h9v4.2h-9v2.3h10.4V27H73z" fill="#2563eb"/>
  <path d="M101 27.4c-5.6 0-9.7-3.9-9.7-9.4s4.1-9.4 9.7-9.4 9.7 3.9 9.7 9.4-4.1 9.4-9.7 9.4zm0-5c2.6 0 4.4-1.8 4.4-4.4s-1.8-4.4-4.4-4.4-4.4 1.8-4.4 4.4 1.8 4.4 4.4 4.4z" fill="#0f172a"/>
  <path d="M120.7 27.4c-4.7 0-7.8-1.9-8.2-5.8h5.4c.2 1.2 1.1 1.7 2.8 1.7 1.6 0 2.4-.4 2.4-1.2 0-.9-.8-1.1-3.4-1.6-4-.7-6.8-1.7-6.8-5.7 0-3.9 3.2-6.2 7.6-6.2 4.2 0 7.3 1.8 7.8 5.7H123c-.2-1-.9-1.6-2.5-1.6-1.4 0-2.2.5-2.2 1.3 0 .8.8 1 3.2 1.4 4.5.8 7 1.9 7 5.8 0 4-3.2 6.2-7.8 6.2z" fill="#0f172a"/>
</svg>
